<svg viewBox = "0 0 88 88" width="88" height="88" xmlns="http://www.w3.org/2000/svg"><g transform="matrix(1 0 0 1 44 44)"  ><g style=""   ><g transform="matrix(1 0 0 1 -0.26 5.11)"  ><path style="stroke: none; stroke-width: 1; stroke-dasharray: none; stroke-linecap: butt; stroke-dashoffset: 0; stroke-linejoin: miter; stroke-miterlimit: 4; fill: rgb(144,149,160); fill-rule: evenodd; opacity: 1;"  transform=" translate(-43.74, -49.11)" d="M 42.3667 19.3548 C 43.1256 18.5976 44.3498 18.5976 45.1088 19.3548 C 52.3489 26.5778 59.0529 35.5964 61.6482 45.7937 C 61.6621 45.8482 61.6681 45.9056 61.6912 45.9569 C 61.7065 45.991 61.7123 46.0287 61.7206 46.0652 C 61.7354 46.1307 61.7503 46.2051 61.7651 46.2795 C 61.8594 46.5999 61.9352 46.9203 62.0106 47.2407 C 62.0129 47.2504 62.0056 47.2596 61.9957 47.2596 C 61.9859 47.2596 61.9787 47.2688 61.9808 47.2784 C 64.9661 60.8927 57.3754 74.5887 44.3743 79.3139 C 43.964 79.463 43.5115 79.463 43.1012 79.3139 C 30.1001 74.5886 22.5094 60.8916 25.4948 47.2591 C 25.4969 47.2495 25.4897 47.2404 25.4798 47.2404 C 25.4699 47.2404 25.4626 47.2311 25.4649 47.2215 C 25.5023 47.0648 25.5438 46.9123 25.5853 46.76 C 25.6286 46.6014 25.6718 46.4429 25.7103 46.2795 C 25.724 46.2248 25.7376 46.1604 25.7513 46.0933 C 25.7625 46.0382 25.7671 45.9808 25.79 45.9295 C 25.8055 45.8953 25.8111 45.8574 25.8203 45.8211 C 28.4106 35.6125 35.1201 26.5842 42.3667 19.3548 Z" stroke-linecap="round" /></g><g transform="matrix(1 0 0 1 -21.74 0.13)"  ><path style="stroke: none; stroke-width: 1; stroke-dasharray: none; stroke-linecap: butt; stroke-dashoffset: 0; stroke-linejoin: miter; stroke-miterlimit: 4; fill: rgb(144,149,160); fill-rule: nonzero; opacity: 1;"  transform=" translate(-22.26, -44.13)" d="M 10.0168 6.74134 C 10.4114 5.75382 11.5121 5.30079 12.4908 5.71679 C 16.131 7.26416 24.931 11.2979 33.9588 17.6273 C 34.8901 18.2802 35.0625 19.5824 34.3722 20.4863 C 28.1874 28.584 22.7841 38.3699 21.5723 48.7737 C 21.568 48.8106 21.5669 48.8484 21.5561 48.884 C 21.5402 48.9378 21.5437 48.9952 21.5399 49.0512 C 21.5352 49.1196 21.5302 49.1854 21.5239 49.2414 C 21.5073 49.4084 21.4853 49.5716 21.4634 49.7346 C 21.4424 49.891 21.4211 50.0474 21.4048 50.2075 C 21.4038 50.2173 21.4122 50.2255 21.422 50.2243 C 21.4317 50.223 21.4401 50.2312 21.4393 50.2409 C 20.312 63.7802 29.1285 76.0555 42.0626 79.4326 C 42.613 79.5764 42.7035 80.3363 42.1782 80.5549 C 28.407 86.286 12.6974 80.0909 6.39436 66.7499 C 6.38953 66.7396 6.37862 66.7336 6.3674 66.735 C 6.35597 66.7365 6.34492 66.7303 6.34025 66.7197 C 6.20526 66.4151 6.09037 66.1257 5.95458 65.8205 C 5.91577 65.7516 5.87839 65.6938 5.84874 65.629 C 5.83016 65.5884 5.8089 65.5468 5.79834 65.5034 C 5.78739 65.4584 5.77722 65.4141 5.75886 65.3716 C -3.57642 43.7315 7.05305 14.1598 10.0168 6.74134 Z" stroke-linecap="round" /></g><g transform="matrix(1 0 0 1 21.22 0.24)"  ><path style="stroke: none; stroke-width: 1; stroke-dasharray: none; stroke-linecap: butt; stroke-dashoffset: 0; stroke-linejoin: miter; stroke-miterlimit: 4; fill: rgb(144,149,160); fill-rule: nonzero; opacity: 1;"  transform=" translate(-65.22, -44.24)" d="M 75.3511 5.8885 C 76.3321 5.47873 77.4296 5.93479 77.8178 6.92454 C 80.7353 14.3611 91.2009 44.0529 81.6838 65.6428 C 81.6819 65.6469 81.6806 65.6514 81.68 65.6559 C 81.679 65.6635 81.676 65.6707 81.6723 65.6774 C 81.6626 65.695 81.6558 65.7162 81.6509 65.7374 C 81.6418 65.7772 81.63 65.8164 81.6093 65.8515 C 81.5699 65.9182 81.534 65.9784 81.5083 66.0519 C 81.3734 66.3373 81.2535 66.6435 81.1193 66.9297 C 81.1144 66.94 81.1035 66.9459 81.0922 66.9443 C 81.081 66.9428 81.0701 66.9487 81.0652 66.9589 C 74.6973 80.2628 58.9295 86.3563 45.1945 80.5385 C 44.6705 80.3166 44.7656 79.5573 45.3172 79.417 C 58.2722 76.1216 67.1658 63.904 66.1215 50.3755 C 66.1207 50.3658 66.1291 50.3579 66.1387 50.3592 C 66.1484 50.3605 66.1568 50.3525 66.1559 50.3427 C 66.1256 50.0149 66.0948 49.6867 66.0458 49.3562 C 66.0413 49.2801 66.0369 49.2037 66.0312 49.1365 C 66.0281 49.0998 66.0281 49.0623 66.0178 49.0269 C 66.002 48.9729 66.0038 48.9152 65.9976 48.8592 C 64.8446 38.4583 59.5055 28.6496 53.3771 20.5205 C 52.6924 19.6123 52.873 18.3112 53.8084 17.6642 C 62.8754 11.3917 71.7004 7.41332 75.3511 5.8885 Z" stroke-linecap="round" /></g></g></g></svg>